<?xml version="1.0" encoding="UTF-8"?>
<svg xmlns="http://www.w3.org/2000/svg" xmlns:xlink="http://www.w3.org/1999/xlink" width="2932" height="3001" viewBox="0 0 2932 3001">
<path fill-rule="evenodd" fill="rgb(9.790039%, 9.790039%, 9.790039%)" fill-opacity="1" d="M 1747.671875 2538.234375 L 2339.308594 2233.902344 C 2347.898438 2255.941406 2358.769531 2276.855469 2371.601562 2296.371094 L 1779.929688 2600.71875 C 1771.328125 2578.675781 1760.488281 2557.753906 1747.671875 2538.234375 Z M 1151.960938 2600.90625 L 560.242188 2296.441406 C 573.0625 2276.917969 583.90625 2255.996094 592.492188 2233.941406 L 1184.199219 2538.308594 C 1171.378906 2557.867188 1160.539062 2578.816406 1151.960938 2600.90625 Z M 2618.21875 1776.988281 L 2618.21875 1224.988281 C 2629.78125 1226.199219 2641.511719 1226.828125 2653.371094 1226.828125 C 2665.238281 1226.828125 2676.96875 1226.199219 2688.53125 1224.988281 L 2688.53125 1776.988281 C 2676.96875 1775.789062 2665.25 1775.171875 2653.371094 1775.171875 C 2641.511719 1775.171875 2629.78125 1775.789062 2618.21875 1776.988281 Z M 243.214844 1777 L 243.214844 1224.988281 C 254.769531 1226.199219 266.5 1226.828125 278.371094 1226.828125 C 290.238281 1226.828125 301.96875 1226.210938 313.527344 1225 L 313.527344 1777 C 301.960938 1775.789062 290.238281 1775.171875 278.371094 1775.171875 C 266.5 1775.171875 254.769531 1775.789062 243.214844 1777 Z M 2339.359375 768.109375 L 1747.640625 463.738281 C 1760.46875 444.230469 1771.328125 423.308594 1779.921875 401.269531 L 2371.671875 705.660156 C 2358.839844 725.160156 2347.960938 746.070312 2339.359375 768.109375 Z M 560.148438 705.609375 L 1152.03125 401.160156 C 1160.621094 423.210938 1171.46875 444.121094 1184.28125 463.640625 L 592.4375 768.089844 C 583.835938 746.039062 572.976562 725.128906 560.148438 705.609375 "/>
<path fill-rule="evenodd" fill="rgb(9.790039%, 9.790039%, 9.790039%)" fill-opacity="1" d="M 278.371094 2390.152344 C 125.050781 2390.152344 0.292969 2265.398438 0.292969 2112.078125 C 0.292969 1958.761719 125.050781 1833.75 278.371094 1833.75 C 431.6875 1833.75 556.695312 1958.511719 556.695312 2112.078125 C 556.695312 2265.644531 431.9375 2390.152344 278.371094 2390.152344 Z M 2653.371094 2390.152344 C 2500.058594 2390.152344 2375.050781 2265.398438 2375.050781 2112.078125 C 2375.050781 1958.761719 2499.808594 1833.75 2653.371094 1833.75 C 2806.941406 1833.75 2931.699219 1958.511719 2931.699219 2112.078125 C 2931.699219 2265.644531 2806.691406 2390.152344 2653.371094 2390.152344 "/>
<path fill-rule="evenodd" fill="rgb(9.790039%, 9.790039%, 9.790039%)" fill-opacity="1" d="M 1465.871094 557.390625 C 1312.550781 557.390625 1187.800781 432.640625 1187.800781 279.320312 C 1187.800781 126 1312.550781 1 1465.871094 1 C 1619.191406 1 1744.199219 125.75 1744.199219 279.320312 C 1744.199219 432.890625 1619.191406 557.390625 1465.871094 557.390625 "/>
<path fill-rule="evenodd" fill="rgb(9.790039%, 9.790039%, 9.790039%)" fill-opacity="1" d="M 1431.449219 2171.160156 L 728.074219 1871.601562 C 715.132812 1865.980469 706.59375 1853.28125 706.59375 1839.121094 L 706.59375 1240.480469 L 1431.449219 1552.511719 Z M 2233.191406 1238.390625 L 2233.191406 1839.371094 C 2233.191406 1853.53125 2224.890625 1866.230469 2211.710938 1871.851562 L 1501.761719 2174.210938 L 1501.761719 1552.511719 L 2233.191406 1238.390625 "/>
<path fill-rule="evenodd" fill="rgb(42.747498%, 42.747498%, 42.747498%)" fill-opacity="1" d="M 744.28125 1180.140625 L 1466.359375 1490.988281 L 2193.03125 1179.078125 L 1483.679688 876.96875 C 1474.890625 873.308594 1464.890625 873.308594 1456.101562 876.96875 L 744.28125 1180.140625 "/>
<path fill-rule="evenodd" fill="rgb(42.747498%, 42.747498%, 42.747498%)" fill-opacity="1" d="M 0.292969 890.160156 C 0.292969 1043.480469 125.050781 1168.238281 278.371094 1168.238281 C 431.9375 1168.238281 556.695312 1043.230469 556.695312 889.910156 C 556.695312 736.601562 431.6875 611.839844 278.371094 611.839844 C 125.050781 611.839844 0.292969 736.851562 0.292969 890.160156 "/>
<path fill-rule="evenodd" fill="rgb(42.747498%, 42.747498%, 42.747498%)" fill-opacity="1" d="M 1187.800781 2722.671875 C 1187.800781 2876.238281 1312.558594 3000.996094 1465.871094 3000.996094 C 1619.191406 3000.996094 1744.191406 2876.238281 1744.191406 2722.671875 C 1744.191406 2569.105469 1619.191406 2444.347656 1465.871094 2444.347656 C 1312.558594 2444.347656 1187.800781 2569.105469 1187.800781 2722.671875 "/>
<path fill-rule="evenodd" fill="rgb(42.747498%, 42.747498%, 42.747498%)" fill-opacity="1" d="M 2375.050781 890.160156 C 2375.050781 1043.480469 2500.058594 1168.238281 2653.371094 1168.238281 C 2806.691406 1168.238281 2931.699219 1043.480469 2931.699219 890.160156 C 2931.699219 736.851562 2806.941406 612.089844 2653.371094 612.089844 C 2499.808594 612.089844 2375.050781 736.851562 2375.050781 890.160156 "/>
</svg>
