<?xml version="1.0" encoding="UTF-8"?>
<svg xmlns="http://www.w3.org/2000/svg" xmlns:xlink="http://www.w3.org/1999/xlink" width="2408" height="2651" viewBox="0 0 2408 2651">
<defs>
  <linearGradient id="silverGradient" x1="0%" y1="0%" x2="100%" y2="100%">
    <stop offset="0%" style="stop-color:#2C2C2C;stop-opacity:1" />
    <stop offset="50%" style="stop-color:#4A4A4A;stop-opacity:1" />
    <stop offset="100%" style="stop-color:#1A1A1A;stop-opacity:1" />
  </linearGradient>
</defs>

<path fill-rule="nonzero" fill="url(#silverGradient)" fill-opacity="1" d="M 274.089844 9.78125 C 267.5625 26.460938 266.835938 342.601562 273.363281 349.121094 C 289.316406 365.800781 293.664062 335.351562 294.390625 194.679688 L 295.117188 44.589844 L 308.167969 180.898438 C 315.417969 256.308594 323.394531 319.390625 325.570312 321.570312 C 327.742188 323.75 371.25 296.191406 422.007812 261.390625 C 472.761719 225.859375 549.625 173.648438 592.40625 146.101562 C 635.183594 117.820312 670.714844 93.160156 670.714844 90.988281 C 670.714844 88.089844 664.914062 84.460938 658.386719 82.289062 C 651.140625 80.839844 611.257812 68.511719 569.203125 56.910156 C 498.867188 35.878906 384.304688 11.949219 309.617188 1.800781 C 284.238281 -1.820312 277.714844 -0.378906 274.089844 9.78125 Z M 274.089844 9.78125 "/>
<path fill-rule="nonzero" fill="url(#silverGradient)" fill-opacity="1" d="M 699.71875 201.929688 C 579.355469 283.140625 439.410156 381.75 384.304688 423.808594 C 326.296875 468.769531 328.46875 457.160156 359.648438 576.808594 C 407.507812 758.078125 483.640625 915.429688 617.78125 1104.679688 C 623.582031 1114.101562 627.9375 1121.351562 625.761719 1121.351562 C 624.308594 1121.351562 606.90625 1099.601562 588.054688 1073.5 C 563.402344 1040.871094 550.351562 1028.539062 545.273438 1033.621094 C 536.570312 1042.320312 564.128906 1075.671875 733.796875 1259.121094 C 850.539062 1386.011719 936.824219 1469.398438 1072.421875 1588.320312 L 1144.929688 1651.402344 L 1177.558594 1620.21875 C 1194.960938 1602.820312 1214.539062 1584.691406 1221.058594 1578.890625 C 1230.488281 1570.910156 1236.289062 1574.539062 1262.390625 1604.269531 C 1279.800781 1623.839844 1293.570312 1641.96875 1294.300781 1644.148438 C 1294.300781 1654.300781 1415.390625 1750.738281 1445.851562 1765.238281 C 1463.25 1773.21875 1474.851562 1777.566406 1471.21875 1774.664062 C 1399.441406 1710.132812 1379.140625 1694.179688 1371.878906 1698.53125 C 1366.808594 1701.429688 1365.359375 1701.429688 1368.261719 1697.808594 C 1371.160156 1694.90625 1353.761719 1670.976562 1329.828125 1644.148438 C 1237.738281 1543.359375 1048.488281 1207.640625 1007.160156 1073.5 L 998.460938 1043.769531 L 1082.570312 959.660156 L 1139.851562 1005.339844 C 1220.339844 1070.601562 1405.960938 1259.121094 1459.621094 1330.910156 C 1513.28125 1401.96875 1569.109375 1509.28125 1598.839844 1599.921875 C 1626.390625 1680.40625 1626.390625 1697.808594 1599.570312 1636.171875 C 1566.941406 1561.488281 1475.570312 1402.691406 1428.441406 1338.160156 C 1387.839844 1282.320312 1237.019531 1121.351562 1225.421875 1121.351562 C 1222.519531 1121.351562 1224.691406 1127.148438 1229.769531 1133.679688 C 1234.839844 1140.929688 1226.140625 1135.128906 1210.910156 1120.628906 C 1194.960938 1106.128906 1176.839844 1090.898438 1171.039062 1086.550781 C 1165.230469 1082.199219 1148.558594 1068.421875 1134.050781 1056.089844 C 1106.5 1032.890625 1094.171875 1027.820312 1102.878906 1043.039062 C 1105.769531 1048.121094 1101.429688 1045.941406 1092 1038.691406 C 1081.839844 1029.269531 1078.941406 1022.019531 1083.300781 1017.660156 C 1089.820312 1011.140625 1118.101562 1030.71875 1193.511719 1095.25 C 1207.289062 1107.570312 1199.308594 1098.871094 1175.378906 1074.941406 C 1150.730469 1051.738281 1120.28125 1024.191406 1107.230469 1014.039062 L 1082.570312 995.191406 L 1058.640625 1024.191406 C 1034.710938 1052.46875 1034.710938 1052.46875 1045.589844 1081.46875 C 1088.371094 1194.589844 1226.859375 1443.300781 1315.328125 1563.660156 C 1368.980469 1636.898438 1482.101562 1744.9375 1548.808594 1786.265625 C 1620.589844 1830.5 1725.011719 1879.804688 1720.660156 1866.753906 C 1706.160156 1828.324219 1680.78125 1752.914062 1649.601562 1652.847656 C 1626.390625 1578.160156 1597.390625 1505.660156 1570.558594 1452.71875 L 1527.78125 1369.339844 L 1581.441406 1311.328125 L 1634.371094 1254.050781 L 1605.371094 1157.609375 C 1550.980469 977.78125 1512.558594 890.769531 1416.839844 738.5 C 1287.769531 531.121094 1150.730469 388.28125 949.878906 251.960938 C 884.617188 207.730469 786.003906 149 778.757812 150.441406 C 777.304688 150.441406 741.777344 173.648438 699.71875 201.929688 Z M 862.867188 457.160156 C 883.894531 466.589844 912.898438 489.070312 929.578125 507.921875 C 1037.621094 630.460938 970.183594 811.011719 807.035156 834.941406 C 731.625 845.820312 631.5625 786.359375 601.832031 713.851562 C 561.953125 613.78125 622.136719 484.71875 725.097656 448.460938 C 764.253906 434.679688 823.710938 438.308594 862.867188 457.160156 Z M 862.867188 457.160156 "/>
<path fill-rule="nonzero" fill="url(#silverGradient)" fill-opacity="1" d="M 725.097656 486.171875 C 610.535156 536.199219 588.054688 686.289062 683.042969 762.429688 C 751.199219 816.089844 830.238281 814.640625 891.871094 757.359375 C 930.300781 722.550781 949.878906 671.070312 943.351562 623.941406 C 938.277344 584.058594 919.421875 546.351562 908.546875 552.871094 C 903.472656 556.5 902.746094 555.058594 906.375 549.25 C 913.621094 536.929688 883.894531 505.75 848.367188 489.789062 C 814.285156 473.839844 756.277344 472.390625 725.097656 486.171875 Z M 844.738281 518.070312 C 858.515625 524.601562 880.996094 546.351562 894.046875 566.660156 C 916.523438 599.28125 918.699219 606.53125 915.800781 644.238281 C 913.621094 677.589844 907.820312 692.089844 890.417969 713.121094 C 847.640625 766.78125 781.65625 787.808594 733.074219 762.429688 C 722.195312 756.628906 709.148438 753.730469 704.792969 756.628906 C 701.171875 758.808594 699.71875 758.078125 701.894531 753.730469 C 706.246094 746.480469 668.542969 705.148438 662.742188 710.949219 C 659.113281 714.570312 658.386719 710.949219 651.863281 652.210938 C 640.261719 547.800781 750.476562 470.941406 844.738281 518.070312 Z M 844.738281 518.070312 "/>
<path fill-rule="nonzero" fill="url(#silverGradient)" fill-opacity="1" d="M 749.753906 519.519531 C 654.765625 547.800781 632.285156 673.96875 711.320312 734.878906 C 737.425781 754.449219 786.730469 763.878906 819.363281 755.898438 C 846.914062 748.648438 893.320312 703.691406 903.472656 673.96875 C 932.476562 584.78125 840.390625 491.96875 749.753906 519.519531 Z M 749.753906 519.519531 "/>
<path fill-rule="nonzero" fill="url(#silverGradient)" fill-opacity="1" d="M 1316.058594 244.710938 C 1310.25 257.761719 1296.46875 271.539062 1281.96875 278.789062 L 1258.050781 290.390625 L 1279.800781 299.089844 C 1292.128906 304.890625 1306.628906 319.390625 1313.878906 333.898438 L 1325.480469 360 L 1338.53125 338.96875 C 1345.78125 327.371094 1361.730469 309.96875 1373.339844 301.269531 L 1395.808594 284.589844 L 1373.339844 275.160156 C 1360.28125 269.359375 1347.960938 257.03125 1342.878906 243.980469 C 1332.730469 216.429688 1327.660156 216.429688 1316.058594 244.710938 Z M 1316.058594 244.710938 "/>
<path fill-rule="nonzero" fill="url(#silverGradient)" fill-opacity="1" d="M 288.589844 487.621094 C 282.789062 503.570312 318.320312 627.558594 354.574219 717.480469 C 405.332031 840.738281 526.421875 1043.769531 541.648438 1028.539062 C 546 1024.191406 534.398438 1000.261719 509.019531 961.109375 C 422.734375 828.410156 357.472656 681.941406 321.941406 542.730469 C 305.265625 477.460938 297.292969 464.410156 288.589844 487.621094 Z M 288.589844 487.621094 "/>
<path fill-rule="nonzero" fill="url(#silverGradient)" fill-opacity="1" d="M 1828.699219 539.101562 C 1826.519531 542.730469 1827.25 549.980469 1830.871094 555.058594 C 1838.128906 567.378906 1862.050781 559.398438 1858.429688 546.351562 C 1854.070312 535.46875 1833.769531 530.398438 1828.699219 539.101562 Z M 1828.699219 539.101562 "/>
<path fill-rule="nonzero" fill="url(#silverGradient)" fill-opacity="1" d="M 1439.320312 724.71875 C 1439.320312 727.621094 1453.820312 751.558594 1471.21875 778.378906 C 1533.578125 874.820312 1579.269531 981.410156 1627.839844 1143.109375 C 1651.050781 1219.238281 1657.570312 1233.75 1669.179688 1231.570312 C 1781.570312 1214.890625 1839.570312 1215.621094 1971.539062 1237.371094 C 1995.46875 1240.988281 2016.5 1243.171875 2017.949219 1240.988281 C 2022.300781 1236.640625 1975.890625 1155.429688 1917.160156 1066.96875 C 1782.289062 861.039062 1701.078125 781.28125 1592.308594 744.300781 C 1549.539062 729.800781 1439.320312 716.019531 1439.320312 724.71875 Z M 1439.320312 724.71875 "/>
<path fill-rule="nonzero" fill="url(#silverGradient)" fill-opacity="1" d="M 2101.339844 990.109375 C 2086.109375 1016.941406 2086.109375 1018.390625 2098.429688 1029.988281 C 2115.839844 1045.941406 2132.511719 1044.488281 2145.570312 1026.359375 C 2154.988281 1012.589844 2154.988281 1008.238281 2140.488281 986.480469 C 2131.789062 972.710938 2123.089844 961.828125 2120.910156 961.828125 C 2118.738281 961.828125 2110.039062 974.878906 2101.339844 990.109375 Z M 2101.339844 990.109375 "/>
<path fill-rule="nonzero" fill="url(#silverGradient)" fill-opacity="1" d="M 76.863281 1026.359375 C 68.160156 1043.039062 60.90625 1056.089844 59.460938 1056.089844 C 58.734375 1056.089844 44.957031 1061.171875 29.003906 1066.25 L 0 1076.398438 L 31.902344 1085.101562 C 58.007812 1092.351562 65.261719 1097.429688 75.410156 1122.078125 C 81.9375 1137.308594 88.464844 1150.359375 90.636719 1150.359375 C 92.8125 1150.359375 100.789062 1138.03125 108.765625 1123.53125 C 116.742188 1108.300781 132.695312 1091.621094 145.019531 1085.820312 L 166.046875 1075.671875 L 142.84375 1064.800781 C 129.070312 1058.269531 114.566406 1042.320312 105.867188 1024.921875 L 91.363281 996.640625 Z M 76.863281 1026.359375 "/>
<path fill-rule="nonzero" fill="url(#silverGradient)" fill-opacity="1" d="M 688.84375 1265.648438 C 678.691406 1283.050781 669.265625 1401.238281 672.890625 1473.019531 C 680.867188 1639.800781 746.851562 1770.316406 928.851562 1976.96875 C 965.105469 2019.023438 1004.988281 2062.53125 1017.308594 2073.40625 L 1038.339844 2093.707031 L 1020.941406 2033.527344 C 1006.429688 1984.21875 1003.539062 1961.742188 1005.710938 1906.636719 C 1008.609375 1846.449219 1010.789062 1835.574219 1038.339844 1779.742188 C 1055.019531 1747.113281 1080.398438 1706.507812 1094.898438 1691.28125 C 1109.398438 1675.328125 1118.101562 1660.824219 1115.199219 1657.925781 C 1020.21875 1578.160156 889.695312 1457.800781 803.40625 1370.789062 C 743.226562 1309.160156 691.746094 1262.019531 688.84375 1265.648438 Z M 688.84375 1265.648438 "/>
<path fill-rule="nonzero" fill="url(#silverGradient)" fill-opacity="1" d="M 2181.820312 1399.789062 C 2179.640625 1406.320312 2179.640625 1416.46875 2181.820312 1422.269531 C 2187.621094 1438.21875 2216.628906 1422.269531 2213.71875 1405.589844 C 2210.820312 1389.640625 2187.621094 1385.289062 2181.820312 1399.789062 Z M 2181.820312 1399.789062 "/>
<path fill-rule="nonzero" fill="url(#silverGradient)" fill-opacity="1" d="M 195.777344 1411.390625 C 192.878906 1416.46875 193.601562 1422.988281 197.953125 1427.339844 C 208.105469 1437.5 230.582031 1428.789062 226.957031 1416.46875 C 222.605469 1404.871094 202.304688 1401.238281 195.777344 1411.390625 Z M 195.777344 1411.390625 "/>
<path fill-rule="nonzero" fill="url(#silverGradient)" fill-opacity="1" d="M 1785.191406 1413.570312 C 1783.019531 1419.371094 1783.738281 1428.070312 1787.371094 1433.140625 C 1795.339844 1446.191406 1817.820312 1436.050781 1814.921875 1420.820312 C 1812.019531 1404.871094 1790.269531 1399.789062 1785.191406 1413.570312 Z M 1785.191406 1413.570312 "/>
<path fill-rule="nonzero" fill="url(#silverGradient)" fill-opacity="1" d="M 1651.050781 1517.980469 C 1632.921875 1525.230469 1651.769531 1534.660156 1685.128906 1534.660156 C 1823.621094 1534.660156 1979.519531 1628.921875 2033.171875 1745.660156 C 2045.5 1771.039062 2057.101562 1801.496094 2059.28125 1813.824219 C 2062.179688 1825.425781 2055.648438 1816.722656 2046.230469 1794.242188 C 1989.671875 1662.277344 1859.148438 1570.191406 1713.410156 1558.589844 L 1656.851562 1554.230469 L 1667.71875 1582.519531 C 1673.519531 1597.738281 1681.5 1624.570312 1685.851562 1641.25 C 1693.828125 1671.703125 1694.558594 1672.425781 1724.289062 1672.425781 C 1788.089844 1673.152344 1851.898438 1711.582031 1875.109375 1762.339844 C 1893.949219 1803.667969 1892.511719 1833.398438 1870.75 1859.503906 L 1853.351562 1880.53125 L 1875.109375 1896.480469 C 1902.660156 1917.511719 1925.140625 1953.042969 1925.140625 1978.417969 C 1925.140625 1988.570312 1916.429688 2008.148438 1905.558594 2021.199219 C 1885.980469 2043.675781 1885.980469 2044.402344 1833.050781 2040.054688 L 1779.390625 2035.699219 L 1806.21875 2066.15625 C 1902.660156 2173.472656 1936.011719 2209 1940.359375 2209 C 1942.539062 2209 1943.261719 2200.296875 1941.089844 2188.695312 C 1938.191406 2172.746094 1944.71875 2177.820312 1980.238281 2219.152344 C 2088.28125 2345.316406 2274.628906 2555.597656 2298.558594 2578.800781 C 2330.46875 2608.53125 2330.46875 2608.53125 2258.679688 2485.261719 C 2210.820312 2402.601562 2122.359375 2232.925781 2097.710938 2176.371094 C 2086.109375 2149.542969 2086.109375 2148.816406 2097.710938 2165.492188 C 2128.160156 2210.449219 2315.238281 2406.949219 2297.839844 2375.773438 C 2294.210938 2369.246094 2256.5 2311.964844 2213.71875 2248.15625 C 2144.839844 2145.914062 2098.429688 2058.179688 2081.03125 1998.722656 C 2076.679688 1984.945312 2083.210938 1989.292969 2107.140625 2016.851562 C 2124.539062 2036.425781 2170.21875 2085.734375 2209.378906 2125.613281 L 2280.429688 2198.121094 L 2270.28125 2165.492188 C 2223.148438 2016.851562 2152.089844 1819.625 2130.339844 1781.191406 C 2060 1652.847656 1955.589844 1567.289062 1827.96875 1534.660156 C 1775.769531 1521.609375 1668.449219 1511.460938 1651.050781 1517.980469 Z M 1651.050781 1517.980469 "/>
<path fill-rule="nonzero" fill="url(#silverGradient)" fill-opacity="1" d="M 490.890625 1641.96875 C 478.5625 1650.679688 487.992188 1673.878906 503.21875 1670.976562 C 515.546875 1668.078125 519.167969 1642.699219 507.566406 1638.351562 C 503.945312 1637.621094 495.964844 1639.070312 490.890625 1641.96875 Z M 490.890625 1641.96875 "/>
<path fill-rule="nonzero" fill="url(#silverGradient)" fill-opacity="1" d="M 1359.558594 1805.84375 C 1321.859375 1889.957031 1310.980469 2041.5 1334.179688 2143.742188 C 1361.730469 2260.484375 1420.46875 2367.070312 1510.378906 2463.511719 C 1561.859375 2517.890625 1706.160156 2638.257812 1726.460938 2642.609375 C 1733.710938 2644.058594 1722.828125 2617.230469 1696.730469 2565.023438 C 1656.121094 2483.8125 1646.699219 2458.433594 1669.898438 2492.515625 C 1676.429688 2502.664062 1699.628906 2530.941406 1721.378906 2554.144531 C 1766.339844 2602.730469 1766.339844 2604.902344 1714.128906 2467.132812 C 1694.558594 2415.652344 1678.601562 2372.144531 1678.601562 2370.699219 C 1678.601562 2369.246094 1707.609375 2406.226562 1743.128906 2453.355469 C 1813.46875 2546.167969 1913.539062 2657.835938 1920.789062 2650.582031 C 1926.589844 2645.507812 1883.078125 2530.21875 1820.71875 2383.746094 C 1794.621094 2322.113281 1775.769531 2274.984375 1779.390625 2278.609375 C 1782.289062 2282.234375 1800.421875 2307.613281 1820 2335.894531 C 1878.730469 2420.726562 2062.179688 2628.105469 2093.359375 2644.78125 C 2115.839844 2656.382812 2108.578125 2641.882812 2054.929688 2559.222656 C 1986.039062 2454.808594 1922.230469 2369.972656 1827.25 2256.128906 C 1784.46875 2204.648438 1748.210938 2158.242188 1746.039062 2153.890625 C 1743.859375 2148.089844 1734.429688 2150.269531 1717.03125 2158.96875 C 1688.03125 2174.195312 1666.28125 2171.292969 1630.75 2150.269531 C 1607.539062 2136.488281 1584.339844 2092.984375 1584.339844 2063.980469 C 1584.339844 2055.277344 1579.269531 2049.476562 1572.011719 2049.476562 C 1550.980469 2049.476562 1512.558594 2022.652344 1497.328125 1997.269531 C 1487.898438 1982.046875 1482.820312 1960.289062 1482.820312 1938.539062 C 1482.820312 1901.558594 1490.078125 1881.980469 1514 1855.875 C 1521.980469 1846.449219 1527.058594 1837.75 1524.878906 1835.574219 C 1516.898438 1827.597656 1406.691406 1782.640625 1402.339844 1785.542969 C 1399.441406 1786.992188 1391.460938 1811.644531 1384.210938 1840.648438 C 1363.910156 1918.960938 1365.359375 2056.730469 1387.109375 2131.414062 C 1413.210938 2222.050781 1461.800781 2308.335938 1515.460938 2356.195312 C 1529.960938 2369.246094 1529.960938 2369.246094 1514.730469 2361.996094 C 1488.628906 2349.667969 1422.640625 2272.085938 1397.269531 2225.679688 C 1384.210938 2201.023438 1366.808594 2155.34375 1358.839844 2124.164062 C 1334.910156 2031.351562 1340.710938 1868.929688 1370.441406 1797.867188 C 1385.660156 1762.339844 1375.511719 1768.863281 1359.558594 1805.84375 Z M 1450.191406 2104.585938 C 1473.398438 2151.714844 1538.660156 2224.953125 1583.609375 2253.957031 C 1621.320312 2277.886719 1617.691406 2280.785156 1576.359375 2259.757812 C 1495.148438 2217.699219 1426.988281 2120.539062 1414.671875 2027.726562 L 1410.320312 1995.09375 L 1420.46875 2029.898438 C 1426.269531 2049.476562 1439.320312 2082.832031 1450.191406 2104.585938 Z M 1450.191406 2104.585938 "/>
<path fill-rule="nonzero" fill="url(#silverGradient)" fill-opacity="1" d="M 2383.398438 1881.980469 C 2368.890625 1890.679688 2376.140625 1915.335938 2392.820312 1915.335938 C 2402.980469 1915.335938 2407.320312 1910.257812 2407.320312 1897.933594 C 2407.320312 1878.355469 2397.898438 1872.554688 2383.398438 1881.980469 Z M 2383.398438 1881.980469 "/>
<path fill-rule="nonzero" fill="url(#silverGradient)" fill-opacity="1" d="M 664.914062 1905.910156 C 659.839844 1910.984375 656.214844 1921.136719 656.214844 1929.839844 C 656.214844 1962.464844 694.644531 1974.066406 717.847656 1947.964844 C 728.722656 1935.640625 729.449219 1930.5625 722.921875 1915.335938 C 713.496094 1895.757812 680.867188 1889.957031 664.914062 1905.910156 Z M 664.914062 1905.910156 "/>
<path fill-rule="nonzero" fill="url(#silverGradient)" fill-opacity="1" d="M 1173.210938 1952.316406 C 1171.039062 1958.117188 1172.480469 1966.816406 1176.839844 1971.167969 C 1188.441406 1982.769531 1207.289062 1972.617188 1207.289062 1955.214844 C 1207.289062 1937.8125 1179.730469 1934.914062 1173.210938 1952.316406 Z M 1173.210938 1952.316406 "/>
<path fill-rule="nonzero" fill="url(#silverGradient)" fill-opacity="1" d="M 2361.640625 2116.1875 C 2363.089844 2127.066406 2368.890625 2132.867188 2378.320312 2132.867188 C 2387.75 2132.867188 2393.550781 2127.066406 2395 2116.1875 C 2397.179688 2103.136719 2394.269531 2100.234375 2378.320312 2100.234375 C 2362.371094 2100.234375 2359.46875 2103.136719 2361.640625 2116.1875 Z M 2361.640625 2116.1875 "/>
<path fill-rule="nonzero" fill="url(#silverGradient)" fill-opacity="1" d="M 675.066406 2343.867188 C 662.015625 2356.195312 661.289062 2361.269531 669.265625 2372.871094 C 683.042969 2393.902344 721.472656 2386.648438 721.472656 2362.71875 C 721.472656 2335.167969 694.644531 2324.292969 675.066406 2343.867188 Z M 675.066406 2343.867188 "/>
</svg>
